<mxfile host="app.diagrams.net" modified="2022-10-08T10:39:52.749Z" agent="5.0 (Windows NT 10.0; Win64; x64) AppleWebKit/537.36 (KHTML, like Gecko) Chrome/105.0.0.0 Safari/537.36" etag="ONWcdC5w0T0TRAtJluUE" version="20.3.7" type="github">
  <diagram id="OInQUNuNO3AYRQuPPQoJ" name="第 1 页">
    <mxGraphModel dx="3162" dy="1972" grid="1" gridSize="10" guides="1" tooltips="1" connect="1" arrows="1" fold="1" page="1" pageScale="1" pageWidth="1100" pageHeight="850" math="0" shadow="0">
      <root>
        <mxCell id="0" />
        <mxCell id="1" parent="0" />
        <mxCell id="HXH1NVRYo9vW2IFRsBhu-3" value="" style="rounded=0;whiteSpace=wrap;html=1;dashed=1;strokeWidth=2;fillColor=none;" parent="1" vertex="1">
          <mxGeometry x="-120" width="1550" height="1200" as="geometry" />
        </mxCell>
        <mxCell id="HXH1NVRYo9vW2IFRsBhu-28" value="ocmb-lib-base:0.0.1-SNAPSHOT,&lt;span style=&quot;background-color: initial;&quot;&gt;mysql-connector-java:8.0.23&lt;br&gt;&lt;/span&gt;" style="rounded=0;whiteSpace=wrap;html=1;dashed=1;strokeWidth=2;fillColor=#003B00;fontSize=14;fontColor=#FFFFFF;strokeColor=none;" parent="1" vertex="1">
          <mxGeometry x="270" y="896.5" width="890" height="46" as="geometry" />
        </mxCell>
        <mxCell id="HXH1NVRYo9vW2IFRsBhu-27" value="&lt;font color=&quot;#330000&quot;&gt;&lt;span style=&quot;font-weight: 400;&quot;&gt;ocmb-api-application:0.0.1-SNAPSHOT&lt;/span&gt;&lt;/font&gt;" style="rounded=0;whiteSpace=wrap;html=1;dashed=1;strokeWidth=2;fillColor=none;verticalAlign=top;fontSize=14;fontStyle=1" parent="1" vertex="1">
          <mxGeometry x="248.5" y="868.5" width="921.5" height="88" as="geometry" />
        </mxCell>
        <mxCell id="HXH1NVRYo9vW2IFRsBhu-19" value="&lt;span style=&quot;font-weight: 400;&quot;&gt;Service&lt;/span&gt;" style="rounded=0;whiteSpace=wrap;html=1;dashed=1;strokeWidth=2;fillColor=none;verticalAlign=top;fontStyle=1" parent="1" vertex="1">
          <mxGeometry x="210" y="459" width="990" height="731" as="geometry" />
        </mxCell>
        <mxCell id="HXH1NVRYo9vW2IFRsBhu-17" value="&lt;span style=&quot;font-weight: 400;&quot;&gt;ocmb-gateway:0.0.1-SNAPSHOT&lt;/span&gt;" style="rounded=0;whiteSpace=wrap;html=1;dashed=1;strokeWidth=2;fillColor=none;verticalAlign=top;fontStyle=1" parent="1" vertex="1">
          <mxGeometry x="30" y="308" width="1320" height="110" as="geometry" />
        </mxCell>
        <mxCell id="HXH1NVRYo9vW2IFRsBhu-16" value="&lt;span style=&quot;font-weight: 400;&quot;&gt;ocmb-lib-parent:0.0.1&lt;/span&gt;" style="rounded=0;whiteSpace=wrap;html=1;dashed=1;strokeWidth=2;fillColor=none;verticalAlign=top;fontStyle=1" parent="1" vertex="1">
          <mxGeometry x="30" y="40" width="1320" height="100" as="geometry" />
        </mxCell>
        <mxCell id="HXH1NVRYo9vW2IFRsBhu-15" value="&lt;span style=&quot;font-weight: 400;&quot;&gt;ocmb-lib-base:0.0.1-SNAPSHOT&lt;/span&gt;" style="rounded=0;whiteSpace=wrap;html=1;dashed=1;strokeWidth=2;fillColor=none;verticalAlign=top;fontStyle=1" parent="1" vertex="1">
          <mxGeometry x="30" y="163" width="1320" height="100" as="geometry" />
        </mxCell>
        <mxCell id="dbITkS7-5qgyu-br_rXh-1" value="&lt;br style=&quot;font-size: 14px;&quot;&gt;&lt;div&gt;Monitoring&amp;amp;&lt;span style=&quot;background-color: initial;&quot;&gt;Protection&lt;/span&gt;&lt;/div&gt;" style="rounded=0;whiteSpace=wrap;html=1;dashed=1;strokeWidth=2;fillColor=none;verticalAlign=top;fontSize=14;fontStyle=1" parent="1" vertex="1">
          <mxGeometry x="-20" y="442" width="190" height="470" as="geometry" />
        </mxCell>
        <mxCell id="dbITkS7-5qgyu-br_rXh-2" value="" style="rounded=0;whiteSpace=wrap;html=1;dashed=1;strokeWidth=2;fillColor=none;" parent="1" vertex="1">
          <mxGeometry x="330" y="-130" width="520" height="80" as="geometry" />
        </mxCell>
        <mxCell id="dbITkS7-5qgyu-br_rXh-4" value="&lt;br&gt;&lt;div&gt;Governance&amp;amp;configuration&lt;/div&gt;" style="rounded=0;whiteSpace=wrap;html=1;dashed=1;strokeWidth=2;fillColor=none;verticalAlign=top;fontStyle=1" parent="1" vertex="1">
          <mxGeometry x="1240" y="442" width="180" height="578" as="geometry" />
        </mxCell>
        <mxCell id="dbITkS7-5qgyu-br_rXh-6" value="　Storage" style="rounded=0;whiteSpace=wrap;html=1;dashed=1;strokeWidth=2;fillColor=none;align=left;fontSize=14;fontStyle=1" parent="1" vertex="1">
          <mxGeometry y="1240" width="1370" height="100" as="geometry" />
        </mxCell>
        <mxCell id="dbITkS7-5qgyu-br_rXh-8" value="service group" style="rounded=0;whiteSpace=wrap;html=1;dashed=1;strokeWidth=2;fillColor=none;verticalAlign=top;fontSize=14;fontStyle=1" parent="1" vertex="1">
          <mxGeometry x="234" y="630" width="946" height="540" as="geometry" />
        </mxCell>
        <mxCell id="dbITkS7-5qgyu-br_rXh-11" value="Sleuth&lt;br&gt;(Spring Cloud Lib)" style="rounded=0;whiteSpace=wrap;html=1;dashed=1;strokeWidth=2;fillColor=#0000FF;fontSize=14;strokeColor=none;fontColor=#FFFFFF;" parent="1" vertex="1">
          <mxGeometry x="-10" y="516.5" width="170" height="90" as="geometry" />
        </mxCell>
        <mxCell id="dbITkS7-5qgyu-br_rXh-12" value="Turbine" style="rounded=0;whiteSpace=wrap;html=1;dashed=1;strokeWidth=2;fillColor=#0000FF;fontSize=14;strokeColor=none;fontColor=#FFFFFF;" parent="1" vertex="1">
          <mxGeometry x="-10" y="652" width="170" height="90" as="geometry" />
        </mxCell>
        <mxCell id="dbITkS7-5qgyu-br_rXh-13" value="Hystrix" style="rounded=0;whiteSpace=wrap;html=1;dashed=1;strokeWidth=2;fillColor=#0000FF;fontSize=14;strokeColor=none;fontColor=#FFFFFF;" parent="1" vertex="1">
          <mxGeometry x="-10" y="789.5" width="170" height="90" as="geometry" />
        </mxCell>
        <mxCell id="dbITkS7-5qgyu-br_rXh-24" value="&lt;div&gt;ocmb-lib-base:0.0.1-SNAPSHOT,&lt;span style=&quot;background-color: initial;&quot;&gt;spring-cloud-starter-gateway:2.2.9.RELEASE,&lt;/span&gt;&lt;span style=&quot;background-color: initial;&quot;&gt;spring-cloud-starter-netflix-eureka-client:2.2.9.RELEASE,&lt;/span&gt;&lt;span style=&quot;background-color: initial;&quot;&gt;mysql-connector-java:8.0.23,&lt;/span&gt;&lt;span style=&quot;background-color: initial;&quot;&gt;spring-boot-starter-data-redis-reactive:2.3.9.RELEASE,&lt;/span&gt;&lt;span style=&quot;background-color: initial;&quot;&gt;spring-cloud-starter-netflix-hystrix:2.2.9.RELEASE&lt;/span&gt;&lt;/div&gt;" style="rounded=0;whiteSpace=wrap;html=1;dashed=1;strokeWidth=2;fillColor=#63BDEB;fontSize=14;fontColor=#FFFFFF;strokeColor=none;" parent="1" vertex="1">
          <mxGeometry x="240" y="338" width="950" height="66" as="geometry" />
        </mxCell>
        <mxCell id="dbITkS7-5qgyu-br_rXh-26" value="Nginx&lt;br&gt;" style="rounded=0;whiteSpace=wrap;html=1;dashed=1;strokeWidth=2;fillColor=#63BDEB;fontSize=14;fontColor=#FFFFFF;strokeColor=none;" parent="1" vertex="1">
          <mxGeometry x="347" y="-113" width="130" height="43" as="geometry" />
        </mxCell>
        <mxCell id="dbITkS7-5qgyu-br_rXh-27" value="Nginx" style="rounded=0;whiteSpace=wrap;html=1;dashed=1;strokeWidth=2;fillColor=#63BDEB;fontSize=14;fontColor=#FFFFFF;strokeColor=none;" parent="1" vertex="1">
          <mxGeometry x="525" y="-113" width="130" height="46" as="geometry" />
        </mxCell>
        <mxCell id="dbITkS7-5qgyu-br_rXh-28" value="Nginx" style="rounded=0;whiteSpace=wrap;html=1;dashed=1;strokeWidth=2;fillColor=#63BDEB;fontSize=14;fontColor=#FFFFFF;strokeColor=none;" parent="1" vertex="1">
          <mxGeometry x="703" y="-113" width="130" height="46" as="geometry" />
        </mxCell>
        <mxCell id="dbITkS7-5qgyu-br_rXh-33" value="consul&lt;br&gt;&lt;div&gt;(Third party services)&lt;/div&gt;" style="rounded=0;whiteSpace=wrap;html=1;dashed=1;strokeWidth=2;fillColor=#0000FF;fontSize=14;strokeColor=none;fontColor=#FFFFFF;" parent="1" vertex="1">
          <mxGeometry x="1250" y="510" width="160" height="90" as="geometry" />
        </mxCell>
        <mxCell id="dbITkS7-5qgyu-br_rXh-34" value="Eureka&lt;br&gt;&lt;div&gt;(services)&lt;/div&gt;" style="rounded=0;whiteSpace=wrap;html=1;dashed=1;strokeWidth=2;fillColor=#00B300;fontSize=14;strokeColor=none;fontColor=#FFFFFF;" parent="1" vertex="1">
          <mxGeometry x="1250" y="720" width="160" height="90" as="geometry" />
        </mxCell>
        <mxCell id="dbITkS7-5qgyu-br_rXh-35" value="&lt;div&gt;sirius&lt;/div&gt;&lt;div&gt;(Third party services)&lt;/div&gt;" style="rounded=0;whiteSpace=wrap;html=1;dashed=1;strokeWidth=2;fillColor=#0000FF;fontSize=14;strokeColor=none;fontColor=#FFFFFF;" parent="1" vertex="1">
          <mxGeometry x="1250" y="900" width="160" height="90" as="geometry" />
        </mxCell>
        <mxCell id="dbITkS7-5qgyu-br_rXh-48" value="" style="group" parent="1" vertex="1" connectable="0">
          <mxGeometry x="110" y="1250" width="160" height="80" as="geometry" />
        </mxCell>
        <mxCell id="dbITkS7-5qgyu-br_rXh-49" value="AWS S3" style="shape=datastore;whiteSpace=wrap;html=1;strokeWidth=1;fillColor=#ED6D18;fontSize=14;fontColor=#FFFFFF;verticalAlign=top;" parent="dbITkS7-5qgyu-br_rXh-48" vertex="1">
          <mxGeometry width="80" height="80" as="geometry" />
        </mxCell>
        <mxCell id="dbITkS7-5qgyu-br_rXh-50" value="AWS S3" style="shape=datastore;whiteSpace=wrap;html=1;strokeWidth=1;fillColor=#ED6D18;fontSize=14;fontColor=#FFFFFF;verticalAlign=top;" parent="dbITkS7-5qgyu-br_rXh-48" vertex="1">
          <mxGeometry x="80" width="80" height="80" as="geometry" />
        </mxCell>
        <mxCell id="dbITkS7-5qgyu-br_rXh-51" value="" style="shape=flexArrow;endArrow=classic;startArrow=classic;html=1;fontSize=14;fontColor=#FFFFFF;width=18.13953488372093;startSize=2.988571428571429;endSize=2.988571428571429;exitX=0.166;exitY=-0.001;exitDx=0;exitDy=0;exitPerimeter=0;entryX=0.166;entryY=1.003;entryDx=0;entryDy=0;entryPerimeter=0;fillColor=#D4D4D4;" parent="1" edge="1">
          <mxGeometry width="50" height="50" relative="1" as="geometry">
            <mxPoint x="374.34000000000015" y="448.4580000000001" as="sourcePoint" />
            <mxPoint x="374.34000000000015" y="419.3299999999999" as="targetPoint" />
          </mxGeometry>
        </mxCell>
        <mxCell id="dbITkS7-5qgyu-br_rXh-52" value="" style="shape=flexArrow;endArrow=classic;startArrow=classic;html=1;fontSize=14;fontColor=#FFFFFF;width=18.13953488372093;startSize=2.988571428571429;endSize=2.988571428571429;exitX=0.166;exitY=-0.001;exitDx=0;exitDy=0;exitPerimeter=0;entryX=0.166;entryY=1.003;entryDx=0;entryDy=0;entryPerimeter=0;fillColor=#D4D4D4;" parent="1" edge="1">
          <mxGeometry width="50" height="50" relative="1" as="geometry">
            <mxPoint x="821.8400000000001" y="450.76" as="sourcePoint" />
            <mxPoint x="821.8400000000001" y="419.24" as="targetPoint" />
          </mxGeometry>
        </mxCell>
        <mxCell id="dbITkS7-5qgyu-br_rXh-53" value="" style="shape=flexArrow;endArrow=classic;startArrow=classic;html=1;fontSize=14;fontColor=#FFFFFF;width=11.395348837209303;startSize=4.800000000000001;endSize=4.800000000000001;fillColor=#D4D4D4;exitX=-0.002;exitY=0.563;exitDx=0;exitDy=0;exitPerimeter=0;" parent="1" source="dbITkS7-5qgyu-br_rXh-4" edge="1" target="HXH1NVRYo9vW2IFRsBhu-19">
          <mxGeometry width="50" height="50" relative="1" as="geometry">
            <mxPoint x="1219.8400000000001" y="691.26" as="sourcePoint" />
            <mxPoint x="1200.7399999999998" y="708.06" as="targetPoint" />
          </mxGeometry>
        </mxCell>
        <mxCell id="dbITkS7-5qgyu-br_rXh-54" value="" style="shape=flexArrow;endArrow=classic;startArrow=classic;html=1;fontSize=14;fontColor=#FFFFFF;width=11.395348837209303;startSize=4.800000000000001;endSize=4.800000000000001;exitX=0;exitY=0.459;exitDx=0;exitDy=0;exitPerimeter=0;entryX=1.001;entryY=0.441;entryDx=0;entryDy=0;entryPerimeter=0;fillColor=#D4D4D4;" parent="1" edge="1">
          <mxGeometry width="50" height="50" relative="1" as="geometry">
            <mxPoint x="209.5" y="661.23" as="sourcePoint" />
            <mxPoint x="170.23999999999978" y="661.3400000000001" as="targetPoint" />
          </mxGeometry>
        </mxCell>
        <mxCell id="dbITkS7-5qgyu-br_rXh-55" value="" style="html=1;shadow=0;dashed=0;align=center;verticalAlign=middle;shape=mxgraph.arrows2.arrow;dy=0.52;dx=22.43;direction=south;notch=0;strokeWidth=1;fillColor=#D4D4D4;fontSize=14;fontColor=#FFFFFF;" parent="1" vertex="1">
          <mxGeometry x="80" y="1200" width="40" height="40" as="geometry" />
        </mxCell>
        <mxCell id="dbITkS7-5qgyu-br_rXh-57" value="" style="html=1;shadow=0;dashed=0;align=center;verticalAlign=middle;shape=mxgraph.arrows2.arrow;dy=0.52;dx=22.43;direction=south;notch=0;strokeWidth=1;fillColor=#D4D4D4;fontSize=14;fontColor=#FFFFFF;" parent="1" vertex="1">
          <mxGeometry x="1260" y="1200" width="40" height="40" as="geometry" />
        </mxCell>
        <mxCell id="dbITkS7-5qgyu-br_rXh-58" value="" style="html=1;shadow=0;dashed=0;align=center;verticalAlign=middle;shape=mxgraph.arrows2.arrow;dy=0.52;dx=16.13;direction=south;notch=0;strokeWidth=1;fillColor=#D4D4D4;fontSize=14;fontColor=#FFFFFF;" parent="1" vertex="1">
          <mxGeometry x="545" y="1200" width="40" height="40" as="geometry" />
        </mxCell>
        <mxCell id="dbITkS7-5qgyu-br_rXh-60" value="" style="html=1;shadow=0;dashed=0;align=center;verticalAlign=middle;shape=mxgraph.arrows2.arrow;dy=0.55;dx=27.77;direction=south;notch=0;strokeWidth=1;fillColor=#D4D4D4;fontSize=14;fontColor=#FFFFFF;" parent="1" vertex="1">
          <mxGeometry x="571" y="-50" width="40" height="50" as="geometry" />
        </mxCell>
        <mxCell id="K9CEAwhTjPx3oAWJmysk-20" value="Log" style="rounded=0;whiteSpace=wrap;html=1;dashed=1;strokeWidth=2;fillColor=none;verticalAlign=top;fontSize=14;fontStyle=1" parent="1" vertex="1">
          <mxGeometry x="-20" y="942" width="190" height="147" as="geometry" />
        </mxCell>
        <mxCell id="K9CEAwhTjPx3oAWJmysk-21" value="LogBack&lt;br&gt;(Version:6.6)" style="rounded=0;whiteSpace=wrap;html=1;dashed=1;strokeWidth=2;fillColor=#00B300;fontSize=14;strokeColor=none;fontColor=#FFFFFF;" parent="1" vertex="1">
          <mxGeometry x="-10" y="979" width="170" height="90" as="geometry" />
        </mxCell>
        <mxCell id="K9CEAwhTjPx3oAWJmysk-22" value="desensitize" style="rounded=0;whiteSpace=wrap;html=1;dashed=1;strokeWidth=2;fillColor=none;verticalAlign=top;fontSize=14;fontStyle=1" parent="1" vertex="1">
          <mxGeometry x="1240" y="1040" width="180" height="150" as="geometry" />
        </mxCell>
        <mxCell id="K9CEAwhTjPx3oAWJmysk-23" value="Rewrite&amp;nbsp;&lt;br&gt;PatternLayoutEncoder" style="rounded=0;whiteSpace=wrap;html=1;dashed=1;strokeWidth=2;fillColor=#00B300;fontSize=14;strokeColor=none;fontColor=#FFFFFF;" parent="1" vertex="1">
          <mxGeometry x="1250" y="1080" width="160" height="90" as="geometry" />
        </mxCell>
        <mxCell id="BRsfUav_ogNymGtZFSJZ-2" value="" style="shape=flexArrow;endArrow=classic;startArrow=classic;html=1;fontSize=14;fontColor=#FFFFFF;width=11.395348837209303;startSize=4.800000000000001;endSize=4.800000000000001;entryX=1;entryY=0.25;entryDx=0;entryDy=0;fillColor=#D4D4D4;exitX=-0.002;exitY=0.563;exitDx=0;exitDy=0;exitPerimeter=0;" parent="1" edge="1">
          <mxGeometry width="50" height="50" relative="1" as="geometry">
            <mxPoint x="1240" y="1040.2" as="sourcePoint" />
            <mxPoint x="1200.22" y="1040" as="targetPoint" />
          </mxGeometry>
        </mxCell>
        <mxCell id="HXH1NVRYo9vW2IFRsBhu-4" value="spring-boot-starter-parent:2.3.9.RELEASE,mybatis-plus:3.5.0,springfox-swagger2:3.0.0,&lt;span style=&quot;background-color: initial;&quot;&gt;hutool-all:5.7.19,&lt;/span&gt;&lt;span style=&quot;background-color: initial;&quot;&gt;commons-lang3:3.12.0,&lt;/span&gt;&lt;span style=&quot;background-color: initial;&quot;&gt;logstash.version:6.6,&lt;/span&gt;&lt;span style=&quot;background-color: initial;&quot;&gt;httpclient:4.5.12,&lt;/span&gt;&lt;span style=&quot;background-color: initial;&quot;&gt;commons-pool2:2.6.2,&lt;/span&gt;&lt;span style=&quot;background-color: initial;&quot;&gt;firebase-admin:8.1.0&lt;/span&gt;&lt;span style=&quot;background-color: initial;&quot;&gt;&lt;br&gt;&lt;/span&gt;" style="rounded=0;whiteSpace=wrap;html=1;dashed=1;strokeWidth=2;fillColor=#63BDEB;fontSize=14;fontColor=#FFFFFF;strokeColor=none;" parent="1" vertex="1">
          <mxGeometry x="50" y="64" width="1280" height="52" as="geometry" />
        </mxCell>
        <mxCell id="HXH1NVRYo9vW2IFRsBhu-11" value="&lt;span style=&quot;background-color: initial;&quot;&gt;hutool-all:5.7.19,&lt;/span&gt;&lt;span style=&quot;background-color: initial;&quot;&gt;commons-lang3:3.12.0,&lt;/span&gt;&lt;span style=&quot;background-color: initial;&quot;&gt;logstash.version:6.6,&lt;/span&gt;&lt;span style=&quot;background-color: initial;&quot;&gt;httpclient:4.5.12,&lt;/span&gt;&lt;span style=&quot;background-color: initial;&quot;&gt;commons-pool2:2.6.2,&lt;/span&gt;&lt;span style=&quot;background-color: initial;&quot;&gt;firebase-admin:8.1.0&lt;/span&gt;&lt;span style=&quot;background-color: initial;&quot;&gt;&lt;br&gt;&lt;/span&gt;" style="rounded=0;whiteSpace=wrap;html=1;dashed=1;strokeWidth=2;fillColor=#63BDEB;fontSize=14;fontColor=#FFFFFF;strokeColor=none;" parent="1" vertex="1">
          <mxGeometry x="50" y="192" width="1280" height="52" as="geometry" />
        </mxCell>
        <mxCell id="HXH1NVRYo9vW2IFRsBhu-18" value="&lt;span style=&quot;font-weight: 400;&quot;&gt;Filter&lt;/span&gt;" style="rounded=0;whiteSpace=wrap;html=1;dashed=1;strokeWidth=2;fillColor=none;verticalAlign=top;fontStyle=1" parent="1" vertex="1">
          <mxGeometry x="236.75" y="496" width="343.25" height="80" as="geometry" />
        </mxCell>
        <mxCell id="K9CEAwhTjPx3oAWJmysk-11" value="&lt;div&gt;decrypt Request(AES key): RSA 1024Bit&lt;/div&gt;&lt;div&gt;decrypt Request(Body): AES 16bit&lt;/div&gt;" style="rounded=0;whiteSpace=wrap;html=1;dashed=1;strokeWidth=2;fillColor=#003B00;fontSize=14;fontColor=#FFFFFF;strokeColor=none;" parent="1" vertex="1">
          <mxGeometry x="248.5" y="518" width="301.5" height="46" as="geometry" />
        </mxCell>
        <mxCell id="HXH1NVRYo9vW2IFRsBhu-20" value="&lt;span style=&quot;font-weight: 400;&quot;&gt;Filter&lt;/span&gt;" style="rounded=0;whiteSpace=wrap;html=1;dashed=1;strokeWidth=2;fillColor=none;verticalAlign=top;fontStyle=1" parent="1" vertex="1">
          <mxGeometry x="680" y="501" width="491.63" height="80" as="geometry" />
        </mxCell>
        <mxCell id="HXH1NVRYo9vW2IFRsBhu-21" value="&lt;div&gt;encrypt Response(AES key): RSA 1024Bit&lt;/div&gt;&lt;div&gt;encrypt Response(Body): AES 16Bit&lt;/div&gt;" style="rounded=0;whiteSpace=wrap;html=1;dashed=1;strokeWidth=2;fillColor=#003B00;fontSize=14;fontColor=#FFFFFF;strokeColor=none;" parent="1" vertex="1">
          <mxGeometry x="690" y="520" width="451.63" height="49" as="geometry" />
        </mxCell>
        <mxCell id="HXH1NVRYo9vW2IFRsBhu-22" value="" style="html=1;shadow=0;dashed=0;align=center;verticalAlign=middle;shape=mxgraph.arrows2.arrow;dy=0.52;dx=16.13;direction=south;notch=0;strokeWidth=1;fillColor=#D4D4D4;fontSize=14;fontColor=#FFFFFF;" parent="1" vertex="1">
          <mxGeometry x="378.5" y="576" width="40" height="54" as="geometry" />
        </mxCell>
        <mxCell id="HXH1NVRYo9vW2IFRsBhu-23" value="" style="html=1;shadow=0;dashed=0;align=center;verticalAlign=middle;shape=mxgraph.arrows2.arrow;dy=0.52;dx=16.13;direction=south;notch=0;strokeWidth=1;fillColor=#D4D4D4;fontSize=14;fontColor=#FFFFFF;" parent="1" vertex="1">
          <mxGeometry x="980.01" y="580" width="40" height="50" as="geometry" />
        </mxCell>
        <mxCell id="HXH1NVRYo9vW2IFRsBhu-24" value="&lt;font color=&quot;#330000&quot;&gt;&lt;span style=&quot;font-weight: 400;&quot;&gt;ocmb-api-base:0.0.1-SNAPSHOT&lt;/span&gt;&lt;/font&gt;" style="rounded=0;whiteSpace=wrap;html=1;dashed=1;strokeWidth=2;fillColor=none;verticalAlign=top;fontSize=14;fontStyle=1" parent="1" vertex="1">
          <mxGeometry x="248.5" y="662" width="921.5" height="88" as="geometry" />
        </mxCell>
        <mxCell id="dbITkS7-5qgyu-br_rXh-14" value="&lt;div&gt;ocmb-lib-base:0.0.1-SNAPSHOT,&lt;span style=&quot;background-color: initial;&quot;&gt;mysql-connector-java:8.0.23,&lt;/span&gt;&lt;span style=&quot;background-color: initial;&quot;&gt;flyway-core:6.4.4,&lt;/span&gt;&lt;span style=&quot;background-color: initial;&quot;&gt;com.google.zxing:3.3.3,&lt;/span&gt;&lt;span style=&quot;background-color: initial;&quot;&gt;com.itextpdf:5.5.13.2,&lt;/span&gt;&lt;/div&gt;&lt;div&gt;org.apache.poi:4.1.2,&lt;span style=&quot;background-color: initial;&quot;&gt;aws-java-sdk:1.11.163&lt;/span&gt;&lt;/div&gt;" style="rounded=0;whiteSpace=wrap;html=1;dashed=1;strokeWidth=2;fillColor=#003B00;fontSize=14;fontColor=#FFFFFF;strokeColor=none;" parent="1" vertex="1">
          <mxGeometry x="270" y="690" width="890" height="46" as="geometry" />
        </mxCell>
        <mxCell id="HXH1NVRYo9vW2IFRsBhu-25" value="&lt;font color=&quot;#330000&quot;&gt;&lt;span style=&quot;font-weight: 400;&quot;&gt;ocmb-api-bank:0.0.1-SNAPSHOT&lt;/span&gt;&lt;/font&gt;" style="rounded=0;whiteSpace=wrap;html=1;dashed=1;strokeWidth=2;fillColor=none;verticalAlign=top;fontSize=14;fontStyle=1" parent="1" vertex="1">
          <mxGeometry x="247.5" y="763" width="921.5" height="88" as="geometry" />
        </mxCell>
        <mxCell id="HXH1NVRYo9vW2IFRsBhu-26" value="ocmb-lib-base:0.0.1-SNAPSHOT,&lt;span style=&quot;background-color: initial;&quot;&gt;mysql-connector-java:8.0.23&lt;br&gt;&lt;/span&gt;" style="rounded=0;whiteSpace=wrap;html=1;dashed=1;strokeWidth=2;fillColor=#003B00;fontSize=14;fontColor=#FFFFFF;strokeColor=none;" parent="1" vertex="1">
          <mxGeometry x="269" y="791" width="890" height="46" as="geometry" />
        </mxCell>
        <mxCell id="YZQJs8RdpB4uuFci1MbI-2" value="&lt;font color=&quot;#330000&quot;&gt;&lt;span style=&quot;font-weight: 400;&quot;&gt;ocmb-api-user:0.0.1-SNAPSHOT&lt;/span&gt;&lt;/font&gt;" style="rounded=0;whiteSpace=wrap;html=1;dashed=1;strokeWidth=2;fillColor=none;verticalAlign=top;fontSize=14;fontStyle=1" vertex="1" parent="1">
          <mxGeometry x="247.5" y="970" width="921.5" height="88" as="geometry" />
        </mxCell>
        <mxCell id="YZQJs8RdpB4uuFci1MbI-1" value="ocmb-lib-base:0.0.1-SNAPSHOT,&lt;span style=&quot;background-color: initial;&quot;&gt;mysql-connector-java:8.0.23,io.jsonwebtoken:0.9.1&lt;br&gt;&lt;/span&gt;" style="rounded=0;whiteSpace=wrap;html=1;dashed=1;strokeWidth=2;fillColor=#003B00;fontSize=14;fontColor=#FFFFFF;strokeColor=none;" vertex="1" parent="1">
          <mxGeometry x="269" y="998" width="890" height="46" as="geometry" />
        </mxCell>
        <mxCell id="YZQJs8RdpB4uuFci1MbI-3" value="&lt;font color=&quot;#330000&quot;&gt;&lt;span style=&quot;font-weight: 400;&quot;&gt;ocmb-api-out:0.0.1-SNAPSHOT&lt;/span&gt;&lt;/font&gt;" style="rounded=0;whiteSpace=wrap;html=1;dashed=1;strokeWidth=2;fillColor=none;verticalAlign=top;fontSize=14;fontStyle=1" vertex="1" parent="1">
          <mxGeometry x="248.5" y="1069" width="921.5" height="88" as="geometry" />
        </mxCell>
        <mxCell id="YZQJs8RdpB4uuFci1MbI-4" value="ocmb-lib-base:0.0.1-SNAPSHOT,&lt;span style=&quot;background-color: initial;&quot;&gt;mysql-connector-java:8.0.23,io.jsonwebtoken:0.9.1&lt;br&gt;&lt;/span&gt;" style="rounded=0;whiteSpace=wrap;html=1;dashed=1;strokeWidth=2;fillColor=#003B00;fontSize=14;fontColor=#FFFFFF;strokeColor=none;" vertex="1" parent="1">
          <mxGeometry x="270" y="1097" width="890" height="46" as="geometry" />
        </mxCell>
        <mxCell id="YZQJs8RdpB4uuFci1MbI-5" value="" style="group" vertex="1" connectable="0" parent="1">
          <mxGeometry x="360" y="1250" width="160" height="80" as="geometry" />
        </mxCell>
        <mxCell id="YZQJs8RdpB4uuFci1MbI-6" value="MySQL&lt;br&gt;DB(8.0.19)" style="shape=datastore;whiteSpace=wrap;html=1;strokeWidth=1;fillColor=#ED6D18;fontSize=14;fontColor=#FFFFFF;verticalAlign=top;" vertex="1" parent="YZQJs8RdpB4uuFci1MbI-5">
          <mxGeometry width="80" height="80" as="geometry" />
        </mxCell>
        <mxCell id="YZQJs8RdpB4uuFci1MbI-7" value="MySQL&lt;br&gt;DB(8.0.19)" style="shape=datastore;whiteSpace=wrap;html=1;strokeWidth=1;fillColor=#ED6D18;fontSize=14;fontColor=#FFFFFF;verticalAlign=top;" vertex="1" parent="YZQJs8RdpB4uuFci1MbI-5">
          <mxGeometry x="80" width="80" height="80" as="geometry" />
        </mxCell>
        <mxCell id="YZQJs8RdpB4uuFci1MbI-8" value="" style="group" vertex="1" connectable="0" parent="1">
          <mxGeometry x="655" y="1250" width="160" height="80" as="geometry" />
        </mxCell>
        <mxCell id="YZQJs8RdpB4uuFci1MbI-9" value="Redis(6.2.6)" style="shape=datastore;whiteSpace=wrap;html=1;strokeWidth=1;fillColor=#ED6D18;fontSize=14;fontColor=#FFFFFF;verticalAlign=top;" vertex="1" parent="YZQJs8RdpB4uuFci1MbI-8">
          <mxGeometry width="80" height="80" as="geometry" />
        </mxCell>
        <mxCell id="YZQJs8RdpB4uuFci1MbI-10" value="Redis(6.2.6)" style="shape=datastore;whiteSpace=wrap;html=1;strokeWidth=1;fillColor=#ED6D18;fontSize=14;fontColor=#FFFFFF;verticalAlign=top;" vertex="1" parent="YZQJs8RdpB4uuFci1MbI-8">
          <mxGeometry x="80" width="80" height="80" as="geometry" />
        </mxCell>
        <mxCell id="YZQJs8RdpB4uuFci1MbI-11" value="" style="group" vertex="1" connectable="0" parent="1">
          <mxGeometry x="930" y="1250" width="160" height="80" as="geometry" />
        </mxCell>
        <mxCell id="YZQJs8RdpB4uuFci1MbI-12" value="MQ" style="shape=datastore;whiteSpace=wrap;html=1;strokeWidth=1;fillColor=#ED6D18;fontSize=14;fontColor=#FFFFFF;verticalAlign=top;" vertex="1" parent="YZQJs8RdpB4uuFci1MbI-11">
          <mxGeometry width="80" height="80" as="geometry" />
        </mxCell>
        <mxCell id="YZQJs8RdpB4uuFci1MbI-13" value="MQ" style="shape=datastore;whiteSpace=wrap;html=1;strokeWidth=1;fillColor=#ED6D18;fontSize=14;fontColor=#FFFFFF;verticalAlign=top;" vertex="1" parent="YZQJs8RdpB4uuFci1MbI-11">
          <mxGeometry x="80" width="80" height="80" as="geometry" />
        </mxCell>
        <mxCell id="YZQJs8RdpB4uuFci1MbI-14" value="" style="group" vertex="1" connectable="0" parent="1">
          <mxGeometry x="1170" y="1250" width="160" height="80" as="geometry" />
        </mxCell>
        <mxCell id="YZQJs8RdpB4uuFci1MbI-15" value="ES" style="shape=datastore;whiteSpace=wrap;html=1;strokeWidth=1;fillColor=#ED6D18;fontSize=14;fontColor=#FFFFFF;verticalAlign=top;" vertex="1" parent="YZQJs8RdpB4uuFci1MbI-14">
          <mxGeometry width="80" height="80" as="geometry" />
        </mxCell>
        <mxCell id="YZQJs8RdpB4uuFci1MbI-16" value="ES" style="shape=datastore;whiteSpace=wrap;html=1;strokeWidth=1;fillColor=#ED6D18;fontSize=14;fontColor=#FFFFFF;verticalAlign=top;" vertex="1" parent="YZQJs8RdpB4uuFci1MbI-14">
          <mxGeometry x="80" width="80" height="80" as="geometry" />
        </mxCell>
      </root>
    </mxGraphModel>
  </diagram>
</mxfile>
